<svg width="52" height="42" viewBox="0 0 52 42" fill="none" xmlns="http://www.w3.org/2000/svg">
<path d="M49.5219 7.50091C49.5124 6.33612 49.5017 5.01581 48.8792 3.93274C48.0973 2.5672 46.4882 1.74161 43.9606 1.40836C42.9521 1.27545 41.9155 1.20801 40.8792 1.20801C38.5016 1.20801 36.1193 1.55395 33.7992 2.23593L33.5584 2.30655L34.4621 11.9863L32.2948 9.93206L30.4088 13.0492L30.1798 3.60306L29.7522 3.81372C28.9254 4.22076 28.1184 4.6774 27.3539 5.17013C27.2833 5.21536 27.2163 5.2594 27.1576 5.29907C26.9941 5.40738 26.839 5.50894 26.6926 5.57995L26.52 5.66287L26.5355 37.759L27.0457 37.292C29.8668 34.7085 33.6468 33.0026 37.4166 32.611C38.0053 32.5499 38.6087 32.5186 39.2102 32.5186C42.7391 32.5186 46.2846 33.5691 49.1942 35.4758L49.4719 35.6575L49.253 35.6341C49.2379 35.6325 49.2311 35.6286 49.2272 35.6266C46.3187 33.6921 42.7625 32.6273 39.2141 32.6273C38.6155 32.6273 38.0144 32.6583 37.4277 32.7189C34.0186 33.0732 30.6476 34.4761 27.9359 36.6688L28.2644 37.1782C28.4767 37.0715 28.6909 36.9683 28.9052 36.8667L29.0615 37.2432C29.3971 37.1226 29.7355 37.0092 30.0751 36.9017L30.1326 37.1024C29.4034 37.2893 28.6826 37.5071 27.972 37.7558L28.0756 38.3481L45.0821 38.1938L45.1436 37.7987C45.4142 37.8883 45.6832 37.9812 45.9506 38.0799L46.0264 38.1835L46.187 38.1783C46.9115 38.1549 47.6692 38.0819 48.3008 37.711L48.8499 37.388L48.7642 37.3559C48.9685 37.1556 49.1438 36.9108 49.2835 36.6251L49.3327 36.5244L49.3458 36.5307L49.3807 36.4264L49.416 36.3542L49.4065 36.3494L49.4573 36.1983C49.4771 36.1384 49.4969 36.0792 49.5136 36.0181L49.5918 35.7361L49.6013 35.7424L49.6636 35.26C49.7342 34.7109 49.7401 34.1392 49.7362 33.6525L49.5219 7.50091ZM38.0787 12.2426C37.818 12.2418 37.4606 12.2406 37.2214 12.0589C36.9203 11.83 36.8611 11.367 36.8223 11.06L36.0125 4.62305C37.3745 4.29217 38.7801 4.07635 40.1913 3.98074C40.7419 3.94385 41.3033 3.9252 41.8595 3.9252C42.5943 3.9252 43.3357 3.95773 44.0614 4.02161C44.1494 4.03033 44.2395 4.03668 44.3311 4.04263C45.1218 4.09778 45.6991 4.18228 45.9276 4.77499C46.2069 5.49743 46.2465 6.43173 46.285 7.33508L46.5897 7.32199L46.2858 7.3454C46.3029 7.75561 46.3195 8.14242 46.358 8.49908L46.7667 12.2906L38.0787 12.2426Z" fill="#F0F2FA"/>
<path d="M25.3647 38.3723L25.4413 37.7733C24.8371 37.6106 24.2241 37.467 23.6045 37.3408L23.6628 37.1381C24.05 37.2833 24.4336 37.4369 24.8117 37.5999L25.0085 37.244C25.0192 37.2516 25.0299 37.2587 25.0406 37.2663L25.4195 36.7906C22.6269 34.24 19.1754 32.6265 15.4386 32.1239C14.611 32.0124 13.7565 31.9561 12.8987 31.9561C9.35556 31.9561 5.87149 32.8888 3.08844 34.582L2.93848 34.6729L2.96307 35.8396C2.96307 35.8396 2.96426 35.8785 2.96545 35.8908L2.98093 36.1098L2.96823 36.1146L2.98331 36.3431C3.01306 36.7882 3.08051 37.11 3.2027 37.3873L3.24356 37.4805L3.19794 37.4999L3.30823 37.6269L3.3241 37.663L3.3356 37.6582L3.47287 37.8165C4.03146 38.4604 4.96933 38.5489 5.90045 38.5489C5.9552 38.5489 6.00955 38.5485 6.06351 38.5481L6.34082 38.5457L6.38367 38.5326C6.84308 38.3902 7.30368 38.2577 7.76547 38.1335L7.81982 38.533L25.3647 38.3723Z" fill="#F0F2FA"/>
<path d="M40.1779 3.78232C38.7933 3.87555 37.4072 4.08582 36.0583 4.40717L35.7925 4.47064L36.2809 8.34945L38.1379 6.19641C38.1804 6.14761 38.2796 6.03256 38.3696 6.03256C38.3736 6.03256 38.378 6.03296 38.3823 6.03335C38.4545 6.04129 38.5224 6.125 38.5676 6.18133L39.4916 7.31875L39.7308 7.08429C40.0244 6.79587 40.4453 6.62369 40.8571 6.62369C40.892 6.62369 40.9265 6.62488 40.9607 6.62726C41.4141 6.66058 41.8485 6.9014 42.1219 7.27234L42.3254 7.54806L43.101 6.82165C43.1661 6.76135 43.2466 6.68597 43.3287 6.67764C43.3347 6.67685 43.3402 6.67685 43.3458 6.67685C43.4803 6.67685 43.6104 6.84427 43.6656 6.91528L45.5532 9.35516L45.7456 9.30795C45.9424 9.25955 46.1245 9.23456 46.3018 9.23218L46.6359 9.22741L46.5557 8.4776C46.5196 8.1376 46.5026 7.77301 46.4843 7.33145C46.4458 6.41183 46.4058 5.46088 46.1138 4.70392C45.8226 3.94656 45.0374 3.89221 44.3444 3.84381C44.2555 3.83786 44.1678 3.83231 44.0821 3.82437C43.347 3.75891 42.5984 3.72559 41.8573 3.72559C41.2971 3.72559 40.7321 3.74463 40.1779 3.78232Z" fill="#D8DEEC"/>
<path d="M36.515 10.2072L36.922 9.94372C37.3568 9.66205 37.9241 9.51367 38.5633 9.51367C38.6628 9.51367 38.7648 9.51724 38.8668 9.52438C39.4555 9.56644 40.0355 9.71283 40.5981 9.85446L40.7373 9.88898C40.8698 9.92151 41.0023 9.95444 41.1353 9.98578L42.0878 10.2016L42.0505 10.1556C42.2826 10.1849 42.4992 10.2 42.7071 10.2C42.982 10.2 43.2443 10.1734 43.4875 10.1215C43.9016 10.0326 44.2984 9.862 44.6872 9.69537C44.9244 9.59341 45.1382 9.50256 45.3549 9.4252L45.7504 9.28357L43.8167 6.78577C43.6918 6.62549 43.5489 6.47711 43.3474 6.47711H43.3252L43.3097 6.4787C43.1665 6.49377 43.0554 6.58978 42.9654 6.67627L40.8389 8.66229L38.7227 6.05539C38.6426 5.957 38.5605 5.86694 38.4395 5.84036L38.4109 5.83203H38.3673C38.209 5.83203 38.0912 5.94431 37.9876 6.06491L36.2476 8.08307L36.515 10.2072Z" fill="#939BAA"/>
<path d="M42.4625 7.41803L42.3145 7.20221C42.0094 6.75708 41.5088 6.46786 40.976 6.42859C40.9339 6.42542 40.8922 6.42383 40.8502 6.42383C40.367 6.42383 39.8961 6.62576 39.558 6.97726L39.3716 7.17166L40.8188 8.95456L42.4625 7.41803Z" fill="white"/>
<path d="M26.1359 5.68793C25.9867 5.67364 25.8236 5.6304 25.638 5.55542C25.2841 5.4122 24.9369 5.22732 24.5997 5.048C24.3006 4.88852 24.0177 4.73776 23.7206 4.60803C22.459 4.05579 21.1315 3.60828 19.7743 3.27899C17.8506 2.81204 15.8713 2.5752 13.892 2.5752C13.0446 2.5752 12.1853 2.61884 11.3375 2.70493C8.21921 3.02231 5.16162 3.9443 2.49521 5.37094L2.33057 5.45901L2.93597 34.538L3.3815 34.2825C6.12012 32.7123 9.50262 31.8474 12.9058 31.8474C13.7667 31.8474 14.624 31.9041 15.4539 32.0156C19.3633 32.5417 23.0767 34.348 25.9097 37.1017L26.4274 37.6043L26.4116 5.71371L26.1359 5.68793Z" fill="white"/>
<path d="M51.1266 8.83859L50.7727 8.9227C50.6882 8.94293 50.6029 8.95325 50.5192 8.95325C50.3653 8.95325 50.2121 8.91992 50.0768 8.85684L49.6396 8.65332L49.8448 33.6512C49.8475 33.9221 49.8424 34.1931 49.8297 34.4561L49.813 34.8088L51.3948 34.6525L51.4043 34.3867C51.7122 26.0316 51.6257 17.5583 51.1472 9.202L51.1266 8.83859Z" fill="#AF7979"/>
<path d="M44.5568 38.3066L7.74875 38.6419L7.83444 39.012C7.93799 39.4575 7.92966 39.9273 7.81143 40.3712L7.70947 40.7541L44.2267 40.7818L43.9915 40.3351C43.7459 39.8686 43.8153 39.2401 44.1593 38.8069L44.5568 38.3066Z" fill="#AF7979"/>
<path d="M1.85278 11.4086C1.6076 11.609 1.28546 11.7236 0.968872 11.7236C0.904205 11.7236 0.836761 11.7181 0.768127 11.7074L0.415039 11.6506L0.432892 34.7954L0.864532 34.597C1.27277 34.4097 1.72543 34.3106 2.17413 34.3106C2.27649 34.3106 2.38003 34.3157 2.4812 34.326L2.82358 34.3606L2.33719 11.0127L1.85278 11.4086Z" fill="#AF7979"/>
<path d="M29.9829 3.70029L30.2261 13.7339L32.3379 10.2467L34.7103 12.4954L33.7526 2.24707L33.3936 2.35934C32.2855 2.70489 31.1985 3.12741 30.1622 3.61578L29.9829 3.70029Z" fill="#ED6D66"/>
<path d="M49.8033 34.861C49.6569 36.5987 49.1514 37.2148 48.6274 37.6218C47.7819 38.278 46.581 38.2883 45.7043 38.2963L44.4347 38.3086L44.3602 38.3574C44.3506 38.3637 44.3415 38.3701 44.3324 38.3772C43.6802 38.81 43.4485 39.7669 43.8262 40.4541L43.7635 40.7822L45.8761 40.7834C47.4535 40.7834 49.0816 40.6969 50.1337 39.6598C51.1506 38.6597 51.2966 37.1029 51.3588 35.593L51.4021 34.4512L49.8247 34.6087L49.8033 34.861Z" fill="#F9D889"/>
<path d="M49.6308 7.50082L49.6415 8.86874L49.8137 8.9346C50.0117 9.07464 50.2612 9.15201 50.5187 9.15201C50.6532 9.15201 50.7857 9.13138 50.9122 9.09091L51.1368 9.01871L51.1233 8.78305C51.0753 7.96698 51.0281 7.21518 50.9789 6.48361C50.9428 5.95477 50.89 5.48822 50.6119 5.13593C50.4485 4.92963 50.1719 4.79553 49.9049 4.79395C49.7994 4.79395 49.7022 4.81577 49.6161 4.85861L49.4062 4.96375L49.4543 5.19345C49.6177 5.9762 49.6248 6.78632 49.6308 7.50082Z" fill="#F9D889"/>
<path d="M7.90161 40.754L7.96826 40.5393C8.13726 39.9938 8.14917 39.4158 8.00198 38.8679L7.94049 38.6402L6.05841 38.6565C5.99096 38.6573 5.91876 38.6584 5.84179 38.6584C4.9805 38.6584 3.91727 38.5636 3.33646 37.8253C2.88379 37.2489 2.86713 36.4288 2.85483 35.8298L2.81991 34.1639L2.55649 34.133C2.42993 34.1183 2.30139 34.1104 2.17325 34.1104C1.6214 34.1104 1.0751 34.2484 0.593079 34.5099L0.433594 34.5963V35.4707C0.434784 36.8974 0.49469 38.1582 1.22308 39.1357C2.27798 40.5532 4.29614 40.7504 6.31985 40.7528L7.90161 40.754Z" fill="#F9D889"/>
<path d="M0.974945 11.9221C1.43079 11.9221 1.87115 11.7242 2.15997 11.3905L2.34366 11.3239L2.23614 6.14499L1.96558 6.1196C1.93582 6.11682 1.90646 6.11523 1.87631 6.11523C1.34152 6.11523 0.886078 6.54013 0.6893 6.93527C0.413574 7.48871 0.413574 8.14569 0.413574 8.73285L0.415955 11.8357L0.655182 11.888C0.758728 11.9106 0.866638 11.9221 0.974945 11.9221Z" fill="#F9D889"/>
<path d="M46.645 9.30438L46.6125 9.03223H46.3391C45.7277 9.03223 45.1838 9.2659 44.6026 9.51544C44.2277 9.67651 43.8401 9.84314 43.4462 9.92764C43.2125 9.97723 42.9629 10.0022 42.7039 10.0022C42.152 10.0022 41.5994 9.88956 41.1793 9.79156C41.0015 9.7503 40.8238 9.70627 40.6453 9.66104C40.1025 9.52496 39.4876 9.37064 38.8818 9.3266C38.7735 9.31866 38.6652 9.3147 38.5597 9.3147C37.7829 9.3147 37.1136 9.52179 36.624 9.91376L36.4907 10.0201L36.6248 11.0845C36.6796 11.5165 36.7617 11.9597 37.1009 12.2176C37.3707 12.4215 37.717 12.4405 38.078 12.4425L46.9882 12.4913L46.645 9.30438Z" fill="#BFC7D8"/>
<path d="M51.391 6.45551C51.3601 5.99451 51.3172 5.36252 50.9368 4.8801C50.6956 4.57462 50.3024 4.383 49.91 4.38022C49.9073 4.38022 49.9045 4.38022 49.9013 4.38022C49.7807 4.38022 49.6657 4.39887 49.5593 4.43378C49.4736 4.19098 49.3685 3.95374 49.238 3.72641C48.3874 2.24265 46.6787 1.35001 44.0151 0.99851C41.1114 0.61527 38.1574 0.75849 35.2355 1.4238C32.3318 2.08515 29.6047 3.22892 27.1299 4.82257C27.0585 4.8686 26.9922 4.91224 26.9295 4.95389C26.415 5.29349 26.2928 5.37403 25.7921 5.1717C25.4581 5.03681 25.1351 4.86463 24.7936 4.68293C24.5008 4.52701 24.1981 4.36554 23.8862 4.22907C22.6052 3.6681 21.2544 3.21305 19.8718 2.87742C17.0689 2.19663 14.1835 2.00065 11.2945 2.29383C8.04132 2.6247 4.86273 3.59986 2.10269 5.11417C1.98526 5.17844 1.91345 5.30262 1.91662 5.43631L1.92178 5.70093C1.23108 5.67594 0.60266 6.18097 0.318999 6.75028C-0.00116079 7.39337 -0.000367327 8.13605 2.94014e-05 8.73273L0.0206593 35.4714C0.0214528 36.6295 0.0226429 38.2156 0.891478 39.3828C2.05548 40.9467 4.18789 41.1641 6.31912 41.1657L45.8424 41.1966C45.8535 41.1966 45.8646 41.1966 45.8761 41.1966C47.5436 41.1966 49.2646 41.0954 50.4238 39.9545C51.5469 38.8492 51.7052 37.2027 51.7715 35.6107C52.173 25.9305 52.0452 16.1214 51.391 6.45551ZM0.720488 12.0073C0.802611 12.0204 0.885527 12.0276 0.96884 12.0276C1.35644 12.0276 1.74563 11.8887 2.04596 11.6439L2.51211 34.0226C1.9075 33.9619 1.2894 34.0658 0.737547 34.3201L0.720488 12.0073ZM49.1654 36.1102C45.7372 34.3995 41.6129 33.6842 37.5107 34.0952C34.3853 34.4086 31.1817 35.3718 28.1281 36.9052C30.7774 34.7625 34.0869 33.3719 37.4591 33.0216C41.472 32.6043 45.6996 33.6465 49.0595 35.8805C49.109 35.9134 49.1646 35.9308 49.2201 35.9368C49.2035 35.9955 49.1848 36.053 49.1654 36.1102ZM3.48132 37.2646C3.36151 36.9925 3.31073 36.6739 3.28732 36.3228C3.29843 36.3192 3.30993 36.3145 3.32065 36.3085C6.81781 34.3534 10.9438 33.4513 14.938 33.7687C18.4888 34.0507 21.9895 35.3012 24.9328 37.3198C18.1678 34.4011 10.2685 34.3638 3.48132 37.2646ZM14.9706 33.3596C10.9529 33.0411 6.80432 33.9317 3.26867 35.8693C3.26828 35.8531 3.26788 35.8372 3.26788 35.8209L3.24725 34.8418C6.66229 32.7642 11.2017 31.8612 15.3986 32.4257C19.06 32.9185 22.4969 34.534 25.2137 37.0151C22.2017 34.9366 18.6117 33.6489 14.9706 33.3596ZM14.8543 35.5389C17.8655 35.619 20.8465 36.2006 23.6101 37.2337C18.0889 36.1125 12.0455 36.4565 6.29373 38.2414L6.06085 38.2438C5.18527 38.2517 4.21566 38.2077 3.70269 37.6165C7.14947 36.155 10.9997 35.4349 14.8543 35.5389ZM25.3625 38.068L7.81716 38.2275C13.7256 36.6481 19.8682 36.5866 25.3625 38.068ZM43.9206 38.6171C43.5124 39.1312 43.414 39.8918 43.7215 40.4769L8.10519 40.4492C8.23651 39.9576 8.24563 39.4387 8.13098 38.9428L43.9206 38.6171ZM28.0733 38.043C33.5105 36.1387 39.609 36.0832 45.0799 37.8883L28.0733 38.043ZM46.178 37.8736C46.155 37.8431 46.1237 37.8185 46.0852 37.8042C41.0201 35.9265 35.3517 35.6623 30.1121 36.9992C35.9472 35.1568 42.4258 35.2858 48.1466 37.4479C47.605 37.7657 46.9318 37.8494 46.178 37.8736ZM48.5346 37.1555C42.3325 34.741 35.2224 34.7014 28.9588 36.9564C31.7712 35.6285 34.6955 34.7898 37.5519 34.5038C41.5887 34.0991 45.6444 34.8049 49.0099 36.4914C48.8881 36.7398 48.7337 36.9651 48.5346 37.1555ZM50.1497 33.6489L49.9485 9.13303C50.127 9.21634 50.323 9.25839 50.5194 9.25839C50.6281 9.25839 50.7368 9.2453 50.8427 9.21991C51.3216 17.5758 51.4081 26.0194 51.0998 34.3757L50.1342 34.4717C50.1465 34.217 50.152 33.944 50.1497 33.6489ZM49.9049 5.0983C50.0763 5.09949 50.2687 5.19272 50.373 5.32483C50.5976 5.60968 50.6428 6.02744 50.6749 6.50391C50.7265 7.26841 50.7737 8.03409 50.8189 8.80017C50.5404 8.88983 50.2163 8.85175 49.9814 8.67917C49.9695 8.67044 49.9572 8.6633 49.9446 8.65775L49.935 7.4989C49.9291 6.77567 49.9223 5.94214 49.7525 5.13083C49.7954 5.10981 49.8462 5.0979 49.9049 5.0983ZM33.4847 2.64969L34.3309 11.7161L32.458 9.93997C32.4127 9.89752 32.3504 9.87729 32.2893 9.88562C32.2279 9.89395 32.1735 9.92966 32.1414 9.98282L30.5053 12.6841L30.2922 3.89106C31.3253 3.40467 32.3937 2.99009 33.4847 2.64969ZM27.3251 5.55295C27.3858 5.51288 27.4501 5.47043 27.5187 5.426C28.2808 4.93525 29.0723 4.48853 29.8868 4.08664L30.1121 13.3959C30.1145 13.4871 30.1764 13.5657 30.2644 13.5891C30.2819 13.5938 30.2998 13.5962 30.3172 13.5962C30.3878 13.5962 30.4549 13.5597 30.493 13.4974L32.3604 10.4129L34.4448 12.3898C34.5067 12.4485 34.5987 12.4624 34.6757 12.4251C34.7526 12.3878 34.7979 12.3069 34.7899 12.2216L33.885 2.5275C37.1477 1.56861 40.5992 1.27186 43.921 1.71024C46.3478 2.0304 47.8835 2.8068 48.6151 4.08347C49.1975 5.0983 49.2078 6.37656 49.217 7.50406L49.4316 33.6544C49.4359 34.1706 49.4276 34.7085 49.3614 35.2203C45.8809 32.9391 41.5228 31.8775 37.3849 32.3075C33.5113 32.7098 29.7185 34.4308 26.8399 37.0671L26.8248 5.85367C26.9891 5.77472 27.1493 5.6688 27.3251 5.55295ZM11.3675 3.00834C14.1743 2.72269 16.9788 2.91352 19.7024 3.57486C21.0445 3.90097 22.3553 4.34214 23.5982 4.88684C23.8847 5.01221 24.1624 5.15979 24.4563 5.3165C24.7995 5.499 25.1542 5.68784 25.5231 5.83701C25.7453 5.92707 25.9357 5.97428 26.1071 5.99054L26.1222 36.8834C23.236 34.0781 19.4933 32.2524 15.4943 31.714C11.283 31.1471 6.73648 32.0076 3.23019 34.0182L2.63867 5.63984C5.27057 4.23105 8.28372 3.32175 11.3675 3.00834ZM0.961699 7.07044C1.14142 6.71021 1.54886 6.38648 1.93725 6.42218L2.03485 11.1119C2.00033 11.1234 1.9686 11.144 1.9436 11.1738C1.65518 11.5213 1.16086 11.6868 0.720091 11.5904L0.718108 8.73233C0.717711 8.18366 0.717314 7.56198 0.961699 7.07044ZM1.46753 38.9539C0.79547 38.051 0.739531 36.8421 0.738341 35.4706L0.737944 34.7779C1.27948 34.484 1.90948 34.3638 2.52084 34.4356L2.5498 35.8356C2.56329 36.4779 2.58154 37.3579 3.09729 38.0137C3.78918 38.8936 5.04046 38.9626 5.84225 38.9626C5.92199 38.9626 5.99777 38.9618 6.06759 38.9614L7.70767 38.9464C7.83938 39.4391 7.82907 39.9616 7.67712 40.4484L6.31991 40.4476C4.37594 40.446 2.44229 40.2639 1.46753 38.9539ZM49.9204 39.4431C48.9539 40.394 47.3952 40.4789 45.8761 40.4789C45.8654 40.4789 45.8543 40.4789 45.8432 40.4789L44.1317 40.4773C44.1416 40.4293 44.1349 40.3782 44.1083 40.3325C43.7853 39.7851 43.9766 38.971 44.5098 38.625C44.5161 38.6211 44.5213 38.6159 44.5268 38.6115L45.7075 38.6008C46.6283 38.5921 47.8895 38.5806 48.8139 37.8629C49.4034 37.4055 49.9533 36.71 50.1076 34.8863L51.0844 34.7894C51.0744 35.0533 51.0653 35.3175 51.0542 35.5809C50.9939 37.0294 50.857 38.5207 49.9204 39.4431Z" fill="black"/>
<path d="M4.05381 11.8381C4.05817 11.8381 4.06253 11.8381 4.06729 11.8377L6.35523 11.6885C6.46829 11.681 6.55399 11.5834 6.54685 11.4703C6.53931 11.3573 6.43973 11.2716 6.32865 11.2787L5.07935 11.3605L5.80973 9.27326C5.82837 9.27882 5.84781 9.28239 5.86765 9.28239C5.87876 9.28239 5.89026 9.2812 5.90177 9.27961L8.14566 8.90272C8.48447 9.56803 8.78638 10.2528 9.04663 10.9546L8.12146 11.1081C8.00958 11.1264 7.93421 11.2319 7.95246 11.3438C7.96912 11.4442 8.056 11.5152 8.15479 11.5152C8.1659 11.5152 8.177 11.5144 8.18851 11.5124L10.0519 11.2037C10.1638 11.1851 10.2392 11.0796 10.2209 10.9677C10.2023 10.8558 10.0964 10.78 9.98489 10.7991L9.45606 10.8868C9.45407 10.876 9.45169 10.8657 9.44812 10.8554C8.81296 9.12965 7.94055 7.50227 6.85471 6.0185C6.80988 5.95701 6.7345 5.92567 6.65912 5.93678C6.58374 5.94789 6.52066 5.99986 6.49567 6.07167L4.6608 11.314C4.65207 11.3386 4.6489 11.3636 4.64969 11.3886L4.04032 11.4283C3.92725 11.4358 3.84156 11.5334 3.84909 11.6465C3.85624 11.7552 3.94629 11.8381 4.05381 11.8381ZM6.75235 6.58067C7.18875 7.20353 7.58588 7.85179 7.94531 8.52067L5.95652 8.85432L6.75235 6.58067Z" fill="black"/>
<path d="M10.2129 8.03642C14.3393 7.22551 18.6704 7.3604 22.7377 8.4268C22.7551 8.43117 22.7726 8.43355 22.7896 8.43355C22.8809 8.43355 22.9638 8.37245 22.988 8.28041C23.017 8.17052 22.9515 8.05864 22.8416 8.03008C18.7152 6.9478 14.3207 6.81093 10.134 7.63374C10.0229 7.65596 9.95031 7.76347 9.97213 7.87496C9.99395 7.98604 10.1023 8.05824 10.2129 8.03642Z" fill="black"/>
<path d="M22.8021 9.68163C18.9058 8.66204 14.7346 8.39464 10.7395 8.90959C10.6273 8.92388 10.5479 9.02703 10.5622 9.1393C10.5769 9.25157 10.6796 9.33132 10.7919 9.31664C14.735 8.80843 18.8526 9.07225 22.6985 10.0784C22.7156 10.0827 22.733 10.0851 22.7505 10.0851C22.8413 10.0851 22.9247 10.024 22.9489 9.93157C22.9774 9.82207 22.912 9.71019 22.8021 9.68163Z" fill="black"/>
<path d="M10.7937 10.4771C10.6807 10.4886 10.5989 10.5893 10.6105 10.702C10.622 10.8147 10.7235 10.898 10.8354 10.8853C14.8086 10.4767 18.7946 10.7326 22.6829 11.645C22.6988 11.649 22.7146 11.6506 22.7301 11.6506C22.8233 11.6506 22.9074 11.5867 22.9297 11.4923C22.9555 11.382 22.8872 11.2717 22.7769 11.2455C18.8438 10.3223 14.8118 10.0637 10.7937 10.4771Z" fill="black"/>
<path d="M5.52013 15.6274C11.3124 14.707 17.4101 14.7268 23.1543 15.6849C23.1789 15.6893 23.2035 15.6908 23.2281 15.6904C23.3562 15.6877 23.4717 15.6246 23.5042 15.5318C23.5427 15.4215 23.4483 15.3112 23.2932 15.2854C17.4652 14.313 11.2778 14.2932 5.40111 15.2267C5.2452 15.2517 5.14522 15.3616 5.17815 15.4718C5.21108 15.5825 5.36461 15.652 5.52013 15.6274Z" fill="black"/>
<path d="M23.2685 16.9365C17.7655 16.0209 11.8899 15.8646 6.27742 16.4855C6.11953 16.5025 6.00963 16.6076 6.03225 16.7195C6.05486 16.8318 6.20125 16.9088 6.35875 16.8905C11.8991 16.278 17.6984 16.4323 23.13 17.336C23.1542 17.3404 23.1792 17.342 23.2034 17.3416C23.3316 17.3388 23.4474 17.2757 23.4796 17.1829C23.5177 17.0726 23.4232 16.9623 23.2685 16.9365Z" fill="black"/>
<path d="M6.38344 18.0511C6.22475 18.0657 6.11129 18.1685 6.12994 18.2808C6.14818 18.3934 6.2922 18.474 6.45009 18.4581C12.034 17.9439 17.6485 18.0939 23.1385 18.9032C23.1607 18.9064 23.1829 18.908 23.2047 18.9076C23.3356 18.9048 23.4531 18.839 23.4824 18.7437C23.5166 18.6331 23.4182 18.5244 23.2626 18.5013C17.71 17.6829 12.0309 17.5313 6.38344 18.0511Z" fill="black"/>
<path d="M5.52013 20.9361C11.3124 20.0157 17.4101 20.0355 23.1543 20.9936C23.1789 20.9976 23.2035 20.9996 23.2281 20.9988C23.3562 20.9964 23.4717 20.9333 23.5042 20.8405C23.5427 20.7302 23.4483 20.6199 23.2932 20.5941C17.4652 19.6217 11.2778 19.6015 5.40111 20.5354C5.2452 20.5604 5.14522 20.6699 5.17815 20.7806C5.21108 20.8913 5.36461 20.9607 5.52013 20.9361Z" fill="black"/>
<path d="M23.2685 22.2455C17.7655 21.3295 11.8899 21.1731 6.27742 21.794C6.11953 21.8115 6.00963 21.9166 6.03225 22.0285C6.05486 22.1404 6.20125 22.2173 6.35875 22.1995C11.8991 21.5869 17.6984 21.7409 23.13 22.645C23.1542 22.649 23.1792 22.651 23.2034 22.6502C23.3316 22.6478 23.4474 22.5847 23.4796 22.4919C23.5177 22.3816 23.4232 22.2713 23.2685 22.2455Z" fill="black"/>
<path d="M6.38344 23.3599C6.22475 23.3746 6.11129 23.4774 6.12994 23.59C6.14818 23.7023 6.2922 23.7829 6.45009 23.767C12.034 23.2532 17.6485 23.4028 23.1385 24.2121C23.1607 24.2153 23.1829 24.2169 23.2047 24.2165C23.3356 24.2141 23.4531 24.1478 23.4824 24.053C23.5166 23.9419 23.4182 23.8332 23.2626 23.8102C17.71 22.9914 12.0309 22.8398 6.38344 23.3599Z" fill="black"/>
<path d="M5.52013 26.2447C11.3124 25.3239 17.4101 25.3441 23.1543 26.3022C23.1789 26.3062 23.2035 26.3082 23.2281 26.3074C23.3562 26.305 23.4717 26.2419 23.5042 26.1491C23.5427 26.0388 23.4483 25.9285 23.2932 25.9027C17.4652 24.9303 11.2778 24.9101 5.40111 25.844C5.2452 25.869 5.14522 25.9785 5.17815 26.0892C5.21108 26.1999 5.36461 26.2693 5.52013 26.2447Z" fill="black"/>
<path d="M23.2685 27.5551C17.7655 26.639 11.8899 26.4827 6.27742 27.1036C6.11953 27.121 6.00963 27.2262 6.03225 27.3381C6.05486 27.4499 6.20125 27.5269 6.35875 27.5091C11.8991 26.8965 17.6984 27.0504 23.13 27.9546C23.1542 27.9585 23.1792 27.9601 23.2034 27.9597C23.3316 27.9574 23.4474 27.8943 23.4796 27.8014C23.5177 27.6911 23.4232 27.5809 23.2685 27.5551Z" fill="black"/>
<path d="M6.38344 28.6695C6.22475 28.6838 6.11129 28.7869 6.12994 28.8992C6.14818 29.0115 6.2922 29.0924 6.45009 29.0766C12.034 28.5624 17.6485 28.7124 23.1385 29.5217C23.1607 29.5249 23.1829 29.526 23.2047 29.5256C23.3356 29.5233 23.4531 29.4574 23.4824 29.3622C23.5166 29.2515 23.4182 29.1428 23.2626 29.1198C17.71 28.3009 12.0309 28.1494 6.38344 28.6695Z" fill="black"/>
<path d="M28.7155 15.6265C34.4982 14.6478 40.5956 14.6061 46.3497 15.5063C46.3743 15.5103 46.3989 15.5119 46.4231 15.5111C46.5512 15.5075 46.6663 15.4428 46.6976 15.3496C46.7349 15.2389 46.6397 15.1298 46.4846 15.1056C40.6467 14.192 34.4598 14.2344 28.5925 15.2274C28.437 15.2536 28.3378 15.3643 28.372 15.4746C28.4057 15.5849 28.56 15.6527 28.7155 15.6265Z" fill="black"/>
<path d="M46.4764 16.7576C40.9642 15.8971 35.0875 15.8003 29.4813 16.4775C29.3238 16.4965 29.2151 16.6025 29.2385 16.7143C29.2623 16.8258 29.4095 16.9016 29.567 16.8821C35.1006 16.2137 40.9011 16.3093 46.3419 17.1587C46.3661 17.1622 46.3911 17.1638 46.4149 17.163C46.543 17.1595 46.6585 17.0952 46.6898 17.002C46.7271 16.8913 46.6315 16.7818 46.4764 16.7576Z" fill="black"/>
<path d="M29.603 18.0421C29.4447 18.0579 29.332 18.1623 29.3519 18.2742C29.3713 18.3864 29.5161 18.4658 29.6736 18.4483C35.252 17.8782 40.8677 17.9715 46.3656 18.7252C46.3878 18.7284 46.4104 18.7292 46.4322 18.7288C46.5631 18.7248 46.6798 18.6578 46.7083 18.5622C46.7413 18.4511 46.6421 18.3436 46.4862 18.3222C40.9252 17.5593 35.2449 17.4652 29.603 18.0421Z" fill="black"/>
<path d="M28.7693 20.9351C34.552 19.9564 40.6493 19.9147 46.403 20.8149C46.428 20.8189 46.4526 20.8205 46.4768 20.8197C46.605 20.8161 46.72 20.7514 46.7514 20.6586C46.7887 20.5479 46.6934 20.4384 46.5379 20.4142C40.7005 19.5006 34.5135 19.543 28.6463 20.536C28.4904 20.5622 28.3916 20.6729 28.4257 20.7832C28.4594 20.8935 28.6137 20.9613 28.7693 20.9351Z" fill="black"/>
<path d="M46.5293 22.0662C41.0175 21.2057 35.1408 21.1089 29.5346 21.7861C29.3771 21.8051 29.268 21.911 29.2918 22.0229C29.3156 22.1348 29.4628 22.2102 29.6203 22.1907C35.1539 21.5223 40.9545 21.6179 46.3948 22.4673C46.4194 22.4708 46.4444 22.4724 46.4682 22.4716C46.5963 22.4681 46.7118 22.4038 46.7431 22.3106C46.78 22.1999 46.6848 22.0904 46.5293 22.0662Z" fill="black"/>
<path d="M29.6566 23.3505C29.4983 23.3668 29.3861 23.4708 29.4055 23.583C29.4249 23.6949 29.5698 23.7743 29.7273 23.7568C35.3057 23.1867 40.9217 23.2799 46.4192 24.0337C46.4414 24.0369 46.464 24.0381 46.4859 24.0373C46.6168 24.0333 46.7334 23.9663 46.762 23.8711C46.7953 23.7596 46.6957 23.6521 46.5398 23.6306C40.9789 22.8681 35.2985 22.7737 29.6566 23.3505Z" fill="black"/>
<path d="M28.823 26.2436C34.6053 25.2648 40.703 25.2232 46.4567 26.1234C46.4817 26.1273 46.5063 26.1289 46.5305 26.1281C46.6587 26.1245 46.7737 26.0599 46.8051 25.967C46.8424 25.8564 46.7471 25.7469 46.5916 25.7227C40.7542 24.8094 34.5672 24.8514 28.7 25.8445C28.5441 25.8706 28.4453 25.9813 28.4794 26.0916C28.5131 26.2019 28.6674 26.2697 28.823 26.2436Z" fill="black"/>
<path d="M46.583 27.3748C41.0712 26.5143 35.1945 26.4175 29.5883 27.0947C29.4308 27.1137 29.3217 27.2196 29.3455 27.3315C29.3693 27.4434 29.5165 27.5188 29.674 27.4993C35.2076 26.8308 41.0082 26.9265 46.4485 27.7759C46.4731 27.7798 46.4981 27.781 46.5219 27.7806C46.65 27.7766 46.7655 27.7124 46.7964 27.6191C46.8337 27.5085 46.7385 27.399 46.583 27.3748Z" fill="black"/>
<path d="M29.7103 28.6591C29.5516 28.6754 29.4393 28.7793 29.4587 28.8916C29.4786 29.0035 29.6234 29.0828 29.7809 29.0654C35.3593 28.4953 40.975 28.5885 46.4728 29.3423C46.495 29.3455 46.5173 29.3467 46.5391 29.3459C46.67 29.3423 46.7866 29.2749 46.8152 29.1796C46.8485 29.0682 46.7489 28.9607 46.593 28.9392C41.0325 28.1767 35.3521 28.0823 29.7103 28.6591Z" fill="black"/>
<path d="M36.5202 11.0975C36.5623 11.4332 36.6329 11.9945 37.0368 12.3012C37.3561 12.5436 37.7731 12.546 38.0778 12.5476L46.8756 12.5956C46.876 12.5956 46.8764 12.5956 46.8768 12.5956C46.9347 12.5956 46.9903 12.5714 47.0292 12.5281C47.0684 12.4849 47.0871 12.4266 47.0807 12.3686L46.6602 8.46603C46.6229 8.1177 46.6067 7.73407 46.5892 7.32702C46.5499 6.39749 46.5095 5.43582 46.2123 4.66537C45.8961 3.84653 45.04 3.78662 44.352 3.73862C44.2632 3.73267 44.1755 3.72632 44.0906 3.71878C42.7913 3.60333 41.4722 3.58905 40.1705 3.67673C38.7141 3.77472 37.2617 4.00085 35.8537 4.34878C35.7526 4.37338 35.6863 4.47018 35.6994 4.57333L36.5202 11.0975ZM41.9185 9.83078C41.9138 9.82284 41.909 9.81451 41.903 9.80737L41.1084 8.82824L43.1726 6.89895C43.2202 6.85452 43.292 6.78747 43.3408 6.78271C43.4249 6.77399 43.5419 6.9295 43.5816 6.98028L45.2526 9.13928C45.0193 9.2218 44.7912 9.31939 44.5663 9.4162C44.1945 9.57568 43.8097 9.74112 43.4233 9.82403C42.9238 9.93115 42.4073 9.90576 41.9185 9.83078ZM40.8493 8.50888L39.7782 7.18896C40.0785 6.87594 40.52 6.70059 40.9529 6.73312C41.394 6.76526 41.813 7.01044 42.0625 7.37503L40.8493 8.50888ZM41.296 9.71017C41.2651 9.70343 41.2342 9.69629 41.2036 9.68915C41.0259 9.64789 40.8485 9.60345 40.6708 9.55902C40.0944 9.41461 39.4985 9.26504 38.8883 9.2214C38.0611 9.16189 37.3149 9.32693 36.7563 9.68796L36.5663 8.17999L38.2174 6.26498C38.3226 6.14319 38.3618 6.13605 38.3694 6.13803C38.3888 6.14001 38.4281 6.17731 38.4856 6.24792L41.296 9.71017ZM46.6483 12.1842L38.0802 12.1374C37.76 12.1358 37.4795 12.1223 37.2847 11.9747C37.0392 11.7878 36.9733 11.4137 36.9273 11.0464L36.8146 10.1509C37.3077 9.75659 38.033 9.57092 38.8593 9.63083C39.4338 9.67169 40.0118 9.81689 40.5712 9.95694C40.7509 10.0018 40.9307 10.047 41.1108 10.089C41.598 10.2025 42.1439 10.3069 42.7036 10.3069C42.9706 10.3069 43.2412 10.283 43.5094 10.2251C43.9351 10.1339 44.3382 9.96051 44.7285 9.79309C45.274 9.55862 45.7902 9.33685 46.3385 9.33685C46.3393 9.33685 46.3404 9.33685 46.3416 9.33685L46.6483 12.1842ZM40.1983 4.08615C41.4785 4.00006 42.7758 4.01395 44.0541 4.12741C44.1418 4.13534 44.2318 4.14169 44.3235 4.14804C44.9836 4.19406 45.6073 4.2377 45.8295 4.81296C46.1024 5.52072 46.1417 6.44787 46.1794 7.34488C46.1968 7.75827 46.2135 8.14865 46.2524 8.51007L46.2972 8.92782C46.0838 8.931 45.8759 8.96234 45.6728 9.01193L43.9061 6.72915C43.8165 6.61371 43.605 6.34512 43.2995 6.37448C43.1131 6.39352 42.9806 6.5173 42.8929 6.59942L42.3664 7.09137C42.0435 6.65417 41.5254 6.36377 40.9826 6.3237C40.447 6.28561 39.8992 6.49112 39.5167 6.86761L38.8042 5.98965C38.7368 5.90674 38.6114 5.75201 38.415 5.73019C38.1623 5.70361 37.9834 5.90872 37.9072 5.99719L36.4976 7.63171L36.1291 4.70425C37.4585 4.38647 38.8264 4.17859 40.1983 4.08615Z" fill="black"/>
</svg>
